<svg xmlns="http://www.w3.org/2000/svg" width="517" height="134" viewBox="0 0 517 134"><defs><style>.a{fill:#045a98;}.b{fill:#fff;}.c{fill:#c5c5c5;font-size:64px;font-family:SegoeUI-Light, Segoe UI;font-weight:300;}</style></defs><g transform="translate(22 16)"><rect class="a" width="517" height="134" rx="67" transform="translate(-22 -16)"/><path class="b" d="M292.178,508.668q-.659.107-1.323.2Q291.519,508.776,292.178,508.668Zm0,0" transform="translate(-230.923 -403.855)"/><path class="b" d="M299.97,507.793c-.21.039-.42.074-.63.11C299.55,507.867,299.76,507.832,299.97,507.793Zm0,0" transform="translate(-237.659 -403.16)"/><path class="b" d="M279.161,510.34q-.772.087-1.551.153Q278.388,510.428,279.161,510.34Zm0,0" transform="translate(-220.407 -405.182)"/><path class="b" d="M287.189,509.738c-.247.033-.5.064-.744.093C286.694,509.8,286.942,509.771,287.189,509.738Zm0,0" transform="translate(-227.422 -404.704)"/><path class="b" d="M307.221,506.41c-.185.039-.371.079-.557.117C306.85,506.489,307.036,506.449,307.221,506.41Zm0,0" transform="translate(-243.474 -402.062)"/><path class="b" d="M324.933,502.113c-.15.043-.3.083-.449.125C324.634,502.2,324.784,502.156,324.933,502.113Zm0,0" transform="translate(-257.623 -398.65)"/><path class="b" d="M319.548,503.543c-.163.043-.326.086-.489.127Q319.3,503.609,319.548,503.543Zm0,0" transform="translate(-253.315 -399.786)"/><path class="b" d="M312.587,505.254c-.172.04-.346.078-.52.117C312.24,505.332,312.414,505.294,312.587,505.254Zm0,0" transform="translate(-247.764 -401.144)"/><path class="b" d="M274.314,511.09q-.417.035-.834.063Q273.9,511.125,274.314,511.09Zm0,0" transform="translate(-217.128 -405.778)"/><path class="b" d="M105.5,52.75A52.75,52.75,0,1,0,52.75,105.5c.31,0,.618-.006.927-.012V64.424H42.344V51.217H53.677V41.5c0-11.272,6.881-17.407,16.936-17.407a93.291,93.291,0,0,1,10.16.519V36.39H73.84c-5.47,0-6.529,2.6-6.529,6.414v8.412H80.39l-1.7,13.208H67.311v39.038A52.778,52.778,0,0,0,105.5,52.75Zm0,0"/><path class="b" d="M266.544,511.43q-.823.053-1.653.082Q265.72,511.484,266.544,511.43Zm0,0" transform="translate(-210.309 -406.048)"/><path class="b" d="M261.38,511.836q-.437.014-.876.022Q260.942,511.851,261.38,511.836Zm0,0" transform="translate(-206.826 -406.37)"/><text class="c" transform="translate(124 76)"><tspan x="0" y="0">Facebook</tspan></text></g></svg>