<svg xmlns="http://www.w3.org/2000/svg" width="497" height="134" viewBox="0 0 497 134"><defs><style>.a{fill:#fff;}.b{fill:#fbbd00;}.c{fill:#0f9d58;}.d{fill:#31aa52;}.e{fill:#3c79e6;}.f{fill:#cf2d48;}.g{fill:#eb4132;}.h{fill:#c5c5c5;font-size:64px;font-family:SegoeUI-Light, Segoe UI;font-weight:300;}</style></defs><g transform="translate(27 23)"><rect class="a" width="497" height="134" rx="67" transform="translate(-27 -23)"/><path class="b" d="M20.859,127.295a23.5,23.5,0,0,1,3.326-12.077v-15h-15a44.523,44.523,0,0,0,0,54.16h15v-15A23.5,23.5,0,0,1,20.859,127.295Z" transform="translate(0 -82.795)"/><path class="c" d="M206.43,376.27,196,386.7l10.43,10.43a44.163,44.163,0,0,0,27.08-9.182V372.961H218.523A23.638,23.638,0,0,1,206.43,376.27Z" transform="translate(-161.93 -308.13)"/><path class="d" d="M67.826,325.477l-15,15a45.21,45.21,0,0,0,3.852,4.387A44.209,44.209,0,0,0,88.141,357.9V337.041A23.65,23.65,0,0,1,67.826,325.477Z" transform="translate(-43.641 -268.9)"/><path class="e" d="M300.5,207.524a44.89,44.89,0,0,0-.729-8.062l-.391-2.138H256v20.859h21.112a23.533,23.533,0,0,1-9.019,9.671l14.987,14.987a45.212,45.212,0,0,0,4.387-3.852A44.21,44.21,0,0,0,300.5,207.524Z" transform="translate(-211.5 -163.024)"/><path class="f" d="M223.146,27.783l1.844,1.844,14.75-14.75L237.9,13.034A44.209,44.209,0,0,0,206.43,0L196,10.43l10.43,10.43A23.487,23.487,0,0,1,223.146,27.783Z" transform="translate(-161.93 0)"/><path class="g" d="M88.14,20.859V0A44.21,44.21,0,0,0,56.674,13.034a45.169,45.169,0,0,0-3.852,4.387l15,15A23.651,23.651,0,0,1,88.14,20.859Z" transform="translate(-43.64 0)"/><text class="h" transform="translate(124 72)"><tspan x="0" y="0">Google</tspan></text></g></svg>